<?xml version="1.0" encoding="utf-8"?>
<!-- Generator: Adobe Illustrator 16.2.1, SVG Export Plug-In . SVG Version: 6.00 Build 0)  -->
<!DOCTYPE svg PUBLIC "-//W3C//DTD SVG 1.1//EN" "http://www.w3.org/Graphics/SVG/1.1/DTD/svg11.dtd">
<svg version="1.1" id="Layer_1" xmlns="http://www.w3.org/2000/svg" xmlns:xlink="http://www.w3.org/1999/xlink" x="0px" y="0px"
	 width="42px" height="24px" viewBox="0 0 42 24" enable-background="new 0 0 42 24" xml:space="preserve">
<g>
	<g>
		<defs>
			<rect id="SVGID_1_" width="42" height="24"/>
		</defs>
		<clipPath id="SVGID_2_">
			<use xlink:href="#SVGID_1_"  overflow="visible"/>
		</clipPath>
		<rect clip-path="url(#SVGID_2_)" fill="#FFFFFF" width="42" height="24"/>
		<polygon clip-path="url(#SVGID_2_)" fill="#BD1F38" points="28.124,8.678 42,1.068 42,0 41.041,0 25.219,8.678 		"/>
		<polygon clip-path="url(#SVGID_2_)" fill="#BD1F38" points="27.468,15.807 42,23.771 42,22.178 30.37,15.807 		"/>
		<polygon clip-path="url(#SVGID_2_)" fill="#BD1F38" points="0,1.828 12.432,8.678 15.336,8.678 0,0.232 		"/>
		<polygon clip-path="url(#SVGID_2_)" fill="#BD1F38" points="14.68,15.807 0,23.861 0,24 2.651,24 17.583,15.807 		"/>
		<polygon clip-path="url(#SVGID_2_)" fill="#2C3077" points="39.125,0 24.419,0 24.419,8.068 		"/>
		<polygon clip-path="url(#SVGID_2_)" fill="#2C3077" points="17.927,0 3.281,0 17.927,8.068 		"/>
		<polygon clip-path="url(#SVGID_2_)" fill="#2C3077" points="42,8.678 42,3.171 32.023,8.678 		"/>
		<polygon clip-path="url(#SVGID_2_)" fill="#2C3077" points="42,21.251 42,15.807 32.023,15.807 		"/>
		<polygon clip-path="url(#SVGID_2_)" fill="#2C3077" points="4.112,24 17.927,24 17.927,16.415 		"/>
		<polygon clip-path="url(#SVGID_2_)" fill="#2C3077" points="24.419,24 38.279,24 24.419,16.415 		"/>
		<polygon clip-path="url(#SVGID_2_)" fill="#2C3077" points="0,15.807 0,21.497 10.323,15.807 		"/>
		<polygon clip-path="url(#SVGID_2_)" fill="#2C3077" points="0,8.678 10.323,8.678 0,2.976 		"/>
		<polygon clip-path="url(#SVGID_2_)" fill="#BD1F38" points="19.226,0 19.226,10.104 0,10.104 0,14.38 19.226,14.38 19.226,24 
			23.121,24 23.121,14.38 42,14.38 42,10.104 23.121,10.104 23.121,0 		"/>
	</g>
</g>
</svg>
